<svg data-icon="" viewBox="60.976 -26.194 236.77 253.518" style="fill: none; stroke: currentColor; stroke-width: 8px; stroke-linecap: round; stroke-linejoin: round;">
  <path d="M 116.613 35.653 L 80.914 36.084 C 70.88 34.705 67.81 41.341 67.661 50.642 L 67.683 151.204 C 67.618 156.645 72.196 161.963 80.452 162.331 L 112.209 161.474"></path>
  <path d="M 116.759 35.664 L 154.977 14.623 C 159.247 12.397 161.94 11.419 166.855 12.467 L 178.019 16.332 C 184.565 18.634 185.462 26.637 183.172 35.225 L 161.701 99.637 C 159.2 106.702 151.521 106.213 144.525 104.361 L 131.213 99.637 C 125.36 97.016 124.648 91.799 127.349 82.461 L 139.372 45.961"></path>
  <path d="M 98.894 99.136 L 123.506 93.626"></path>
  <path d="M 185.584 34.486 L 271.172 21.263 C 280.665 21.947 285.066 25.014 288.803 32.282 L 289.905 45.506 C 288.843 53.082 286.012 57.301 277.416 59.097 L 173.095 74.525 L 279.253 91.055 C 287.77 93.721 289.929 101.141 289.538 106.115 L 287.702 117.135 C 285.403 124.699 280.921 128.534 273.743 128.522 L 184.849 115.299"></path>
  <path d="M 134.158 103.544 L 127.914 116.401 C 126.567 121.544 128.036 127.42 131.587 130.726 L 195.502 161.949 C 201.012 164.492 206.522 163.638 210.195 160.48 L 218.644 146.154 C 221.196 138.073 218.255 132.563 212.399 128.155 L 162.076 104.279"></path>
  <path d="M 130.118 129.624 C 124.99 131.122 120.091 131.241 117.261 135.501 L 110.282 149.093 C 108.517 155.669 110.531 161.423 117.323 165.006 L 177.87 195.743 C 183.535 197.063 188.935 196.277 192.196 194.274 L 201.747 178.112 C 203.836 174.18 202.61 167.445 201.379 163.418"></path>
</svg>