
<svg data-icon="" viewBox="60.976 -26.194 236.77 253.518" style="fill: none; stroke: currentColor; stroke-width: 8px; stroke-linecap: round; stroke-linejoin: round;">
  <path d="M 116.613 35.653 L 80.914 36.084 C 70.88 34.705 67.81 41.341 67.661 50.642 L 67.683 151.204 C 67.618 156.645 72.196 161.963 80.452 162.331 L 112.209 161.474"></path>
  <path d="M 117.472 34.796 L 166.854 -15.445 C 173.152 -21.6 181.311 -21.171 186.178 -15.875 L 194.766 -5.998 C 199.06 -2.133 198.63 3.019 193.907 9.89 L 160.843 43.814 L 146.673 93.196 L 122.625 98.349"></path>
  <path d="M 160.842 44.672 L 261.754 31.79 C 270.167 32.632 273.362 36.275 277.213 41.237 L 278.931 59.272 C 278.444 66.64 275.717 68.703 268.625 70.437 L 184.89 80.743 L 278.501 88.902 C 285.754 89.808 289.257 95.323 290.954 101.784 L 289.237 117.243 C 286.685 125.348 281.641 126.026 274.637 126.261 L 186.178 118.961 L 265.19 150.737 C 269.933 155.012 273.371 160.161 272.06 166.625 L 266.478 179.937 C 262.869 185.602 258.714 187.17 250.16 186.378 L 172.866 154.602 L 213.231 187.666 C 217.02 191.531 219.174 197.543 216.666 203.555 L 206.36 216.437 C 200.907 222.027 195.607 222.902 187.466 218.155 L 118.331 161.473 L 106.737 161.473"></path>
</svg>