<svg data-icon="" viewBox="60.976 -26.194 236.77 253.518" style="fill: none; stroke: currentColor; stroke-width: 8px; stroke-linecap: round; stroke-linejoin: round;">
  <path d="M 116.613 35.653 L 80.914 36.084 C 70.88 34.705 67.81 41.341 67.661 50.642 L 67.683 151.204 C 67.618 156.645 72.196 161.963 80.452 162.331 L 112.209 161.474"></path>
  <path d="M 116.759 35.664 L 154.977 14.623 C 159.247 12.397 161.94 11.419 166.855 12.467 L 178.019 16.332 C 184.565 18.634 185.462 26.637 183.172 35.225 L 161.701 99.637 C 159.2 106.702 151.521 106.213 144.525 104.361 L 131.213 99.637 C 125.36 97.016 124.648 91.799 127.349 82.461 L 139.372 45.961"></path>
  <path d="M 98.894 99.136 L 123.506 93.626"></path>
  <path d="M 186.418 27.693 L 222.238 30.346 C 229.863 33.131 233.037 37.19 233.71 43.574 L 232.812 55.277 C 232.185 63.252 228.1 66.778 220.911 68.352 L 174.478 61.952"></path>
  <path d="M 224.396 68.958 C 231.208 72.435 235.364 75.724 235.56 82.7 L 233.413 97.729 C 229.866 103.885 225.058 106.563 217.096 106.317 L 162.99 98.587"></path>
  <path d="M 133.36 102.882 L 131.213 118.34 C 130.859 123.451 132.14 128.752 139.372 130.793 L 205.501 142.387 C 216.793 144.963 219.226 139.382 222.678 135.517 L 225.684 119.199 C 226.3 112.819 223.003 109.026 219.672 105.887"></path>
  <path d="M 135.937 129.934 C 130.069 128.216 120.622 134.229 119.19 140.241 L 117.043 155.27 C 117.127 162.941 121.127 163.662 125.202 167.293 L 196.913 179.317 C 201.779 178.888 206.503 176.311 210.225 171.158 L 211.943 156.988 C 212.546 152.694 209.51 145.823 209.366 144.105"></path>
</svg>